<svg width="946" height="469" viewBox="0 0 946 469" fill="none" xmlns="http://www.w3.org/2000/svg">
<mask id="path-1-outside-1" maskUnits="userSpaceOnUse" x="0.75" y="0" width="945" height="469" fill="black">
<rect fill="white" x="0.75" width="945" height="469"/>
<path fill-rule="evenodd" clip-rule="evenodd" d="M17.5753 171.238L17.5671 171.231C9.63476 163.816 5.75 152.843 5.75 138.5V48.5C5.75 34.1593 9.63391 23.2632 17.575 16.0122C25.651 8.62347 37.0925 5 51.75 5H86.5V26H49.25C43.2959 26 38.5583 27.7628 34.9412 31.2226C31.2992 34.7063 29.5 38.8644 29.5 43.75V143.25C29.5 148.136 31.2992 152.294 34.9412 155.777C38.5583 159.237 43.2959 161 49.25 161H71.25V108.75H50.25V88H94V182H51.75C37.098 182 25.6599 178.463 17.5837 171.246L17.5753 171.238ZM72.25 107.75V162H49.25C43.0833 162 38.0833 160.167 34.25 156.5C30.4167 152.833 28.5 148.417 28.5 143.25V43.75C28.5 38.5833 30.4167 34.1667 34.25 30.5C38.0833 26.8333 43.0833 25 49.25 25H85.5V6H51.75C37.25 6 26.0833 9.58334 18.25 16.75C10.5833 23.75 6.75 34.3333 6.75 48.5V138.5C6.75 152.667 10.5833 163.333 18.25 170.5C26.0833 177.5 37.25 181 51.75 181H93V89H51.25V107.75H72.25ZM138.37 172.225L138.361 172.216C131.585 165.614 128.309 155.126 128.309 141V55H151.559V146C151.559 150.79 152.907 154.518 155.516 157.293C158.29 159.902 162.019 161.25 166.809 161.25H175.309C180.494 161.25 184.091 159.954 186.329 157.566L186.34 157.554L186.351 157.543C188.863 155.031 190.241 152.255 190.559 149.199V55H213.809V182H191.809V177.097C186.435 180.378 180.088 182 172.809 182H169.309C155.671 182 145.294 178.803 138.37 172.225ZM191.809 175.918C186.506 179.306 180.173 181 172.809 181H169.309C155.809 181 145.725 177.833 139.059 171.5C132.559 165.167 129.309 155 129.309 141V56H150.559V146C150.559 151 151.975 155 154.809 158C157.809 160.833 161.809 162.25 166.809 162.25H175.309C180.642 162.25 184.559 160.917 187.059 158.25C189.725 155.583 191.225 152.583 191.559 149.25V56H212.809V181H192.809V175.25C192.479 175.479 192.146 175.702 191.809 175.918ZM250.623 29.5V5H276.373V29.5H250.623ZM251.873 182V55H275.123V182H251.873ZM318.467 175.728L318.46 175.721C314.017 171.456 311.902 164.803 311.902 156V5H335.152V154.75C335.152 157.275 335.785 158.85 336.811 159.747C337.865 160.67 339.806 161.25 342.902 161.25H348.902V182H334.152C328.223 182 322.984 179.898 318.474 175.735L318.467 175.728ZM380.967 175.728L380.96 175.721C376.517 171.456 374.402 164.803 374.402 156V5H397.652V154.75C397.652 157.275 398.285 158.85 399.311 159.747C400.365 160.67 402.306 161.25 405.402 161.25H411.402V182H396.652C390.723 182 385.484 179.898 380.974 175.735L380.967 175.728ZM505.193 179.889L505.182 179.882C502.909 178.67 500.902 177.066 499.162 175.078C495.233 179.682 490.122 182 483.902 182H466.652C453.891 182 444.352 179.488 438.252 174.259L438.24 174.249L438.229 174.239C432.257 168.794 429.402 159.698 429.402 147.25V142.25C429.402 129.194 432.476 119.215 438.799 112.502C445.134 105.777 454.566 102.5 466.902 102.5H491.902V91C491.902 86.0512 490.395 82.3486 487.486 79.7453C484.57 77.1366 480.182 75.75 474.152 75.75H439.402V55H471.652C486.267 55 497.23 58.1868 504.328 64.7626C511.618 71.3618 515.152 81.858 515.152 96V156C515.152 158.199 515.931 159.789 517.45 160.911C519.216 161.923 522.228 162.5 526.652 162.5H527.652V182H512.902C510.533 182 507.961 181.273 505.205 179.894L505.193 179.889ZM516.902 161.75C515.069 160.417 514.152 158.5 514.152 156V96C514.152 82 510.652 71.8333 503.652 65.5C496.819 59.1667 486.152 56 471.652 56H440.402V74.75H474.152C480.319 74.75 484.986 76.1667 488.152 79C491.319 81.8333 492.902 85.8333 492.902 91V103.5H466.902C442.569 103.5 430.402 116.417 430.402 142.25V147.25C430.402 159.583 433.236 168.333 438.902 173.5C444.736 178.5 453.986 181 466.652 181H483.902C489.888 181 494.758 178.767 498.511 174.3C498.728 174.041 498.942 173.774 499.152 173.5C499.365 173.771 499.582 174.035 499.804 174.292C501.493 176.252 503.442 177.821 505.652 179C508.319 180.333 510.736 181 512.902 181H526.652V163.5C522.152 163.5 518.902 162.917 516.902 161.75ZM481.402 161.25C486.348 161.25 488.991 160.08 490.034 158.254C491.255 156.117 491.902 153.303 491.902 149.75V123.25H466.652C462.56 123.25 459.239 124.578 456.609 127.207C453.98 129.837 452.652 133.158 452.652 137.25V149.75C452.652 153.956 453.626 156.81 455.359 158.543C457.093 160.276 459.946 161.25 464.152 161.25H481.402ZM466.652 122.25C462.319 122.25 458.736 123.667 455.902 126.5C453.069 129.333 451.652 132.917 451.652 137.25V149.75C451.652 154.083 452.652 157.25 454.652 159.25C456.652 161.25 459.819 162.25 464.152 162.25H481.402C486.402 162.25 489.569 161.083 490.902 158.75C492.236 156.417 492.902 153.417 492.902 149.75V122.25H466.652ZM564.395 172.225L564.386 172.216C557.61 165.614 554.334 155.126 554.334 141V55H577.584V146C577.584 150.79 578.932 154.518 581.541 157.292C584.315 159.902 588.044 161.25 592.834 161.25H601.334C606.519 161.25 610.116 159.954 612.354 157.566L612.365 157.554L612.377 157.543C614.889 155.031 616.267 152.255 616.584 149.199V55H639.834V182H617.834V177.097C612.46 180.378 606.114 182 598.834 182H595.334C581.696 182 571.319 178.803 564.395 172.225ZM617.834 175.918C612.532 179.306 606.198 181 598.834 181H595.334C581.834 181 571.751 177.833 565.084 171.5C558.584 165.167 555.334 155 555.334 141V56H576.584V146C576.584 151 578.001 155 580.834 158C583.834 160.833 587.834 162.25 592.834 162.25H601.334C606.667 162.25 610.584 160.917 613.084 158.25C615.751 155.583 617.251 152.583 617.584 149.25V56H638.834V181H618.834V175.25C618.505 175.479 618.172 175.702 617.834 175.918ZM677.898 55H699.898V60.0545C705.023 56.6649 711.376 55 718.898 55H720.398C735.129 55 746.04 58.5815 752.875 65.9659C759.195 58.6402 767.824 55 778.648 55H780.148C793.78 55 804.08 58.1948 810.841 64.7784C817.787 71.3801 821.148 81.8701 821.148 96V182H797.898V91C797.898 86.2124 796.47 82.5823 793.712 79.977L793.691 79.9574L793.671 79.9366C791.066 77.1781 787.436 75.75 782.648 75.75H776.148C771.199 75.75 767.597 77.2562 765.167 80.1402C762.792 82.9897 761.469 86.0382 761.148 89.2981V182H737.898V91C737.898 86.1958 736.543 82.5589 733.941 79.9571L733.931 79.947L733.921 79.9366C731.316 77.1781 727.686 75.75 722.898 75.75H716.398C711.24 75.75 707.446 77.117 704.856 79.7071C702.338 82.2247 701.148 84.8983 701.148 87.75V182H677.898V55ZM760.148 89.25C760.482 85.75 761.898 82.5 764.398 79.5C767.065 76.3333 770.982 74.75 776.148 74.75H782.648C787.648 74.75 791.565 76.25 794.398 79.25C797.398 82.0833 798.898 86 798.898 91V181H820.148V96C820.148 82 816.815 71.8333 810.148 65.5C803.648 59.1667 793.648 56 780.148 56H778.648C768.029 56 759.661 59.573 753.546 66.7189C753.328 66.9747 753.112 67.2351 752.898 67.5C752.68 67.242 752.456 66.9884 752.228 66.7392C745.664 59.5797 735.055 56 720.398 56H718.898C711.249 56 704.916 57.7546 699.898 61.2639C699.559 61.5012 699.226 61.7466 698.898 62V56H678.898V181H700.148V87.75C700.148 84.5833 701.482 81.6667 704.148 79C706.982 76.1667 711.065 74.75 716.398 74.75H722.898C727.898 74.75 731.815 76.25 734.648 79.25C737.482 82.0833 738.898 86 738.898 91V181H760.148V89.25ZM865.91 172.492L865.9 172.484C858.777 165.881 855.33 155.301 855.33 141V96C855.33 81.5638 858.429 70.9871 864.873 64.5429C871.317 58.0987 881.894 55 896.33 55H903.08C915.096 55 924.319 58.3886 930.565 65.3212C936.963 72.0717 940.08 81.9395 940.08 94.75V128.25H878.58V146C878.58 150.949 880.087 154.651 882.997 157.255C885.912 159.863 890.3 161.25 896.33 161.25H932.08V182H898.83C884.055 182 873.01 178.899 865.91 172.492ZM877.58 127.25H939.08V94.75C939.08 82.0833 935.997 72.5 929.83 66C923.83 59.3333 914.913 56 903.08 56H896.33C881.997 56 871.747 59.0833 865.58 65.25C859.413 71.4167 856.33 81.6667 856.33 96V141C856.33 155.167 859.747 165.417 866.58 171.75C873.413 177.917 884.163 181 898.83 181H931.08V162.25H896.33C890.163 162.25 885.497 160.833 882.33 158C879.163 155.167 877.58 151.167 877.58 146V127.25ZM917.33 107.5V89.75C917.33 85.658 916.003 82.3367 913.373 79.7071C910.743 77.0775 907.422 75.75 903.33 75.75H893.83C887.953 75.75 884.056 77.1414 881.833 79.6585C879.723 82.0701 878.58 85.7905 878.58 91V107.5H917.33ZM918.33 89.75C918.33 85.4167 916.913 81.8333 914.08 79C911.247 76.1667 907.663 74.75 903.33 74.75H893.83C887.83 74.75 883.58 76.1667 881.08 79C878.747 81.6667 877.58 85.6667 877.58 91V108.5H918.33V89.75ZM8.25 464V287H55.25C70.3615 287 81.9564 290.102 89.8727 296.467C97.8674 302.728 101.75 312.999 101.75 327V423.5C101.75 437.947 98.3959 448.461 91.4239 454.739C84.6452 460.993 73.4991 464 58.25 464H8.25ZM90.75 454C97.4167 448 100.75 437.833 100.75 423.5V327C100.75 313.167 96.9167 303.25 89.25 297.25C81.5833 291.083 70.25 288 55.25 288H9.25V463H58.25C73.4167 463 84.25 460 90.75 454ZM73.302 312.466L73.2929 312.457C70.1784 309.343 66.0325 307.75 60.75 307.75H32V443.25H60.5C66.7027 443.25 71.0659 441.861 73.8029 439.283C76.5339 436.545 78 432.19 78 426V324.75C78 319.466 76.4073 315.416 73.3113 312.475L73.302 312.466ZM60.5 444.25C66.8333 444.25 71.5 442.833 74.5 440C77.5 437 79 432.333 79 426V324.75C79 319.25 77.3333 314.917 74 311.75C70.6667 308.417 66.25 306.75 60.75 306.75H31V444.25H60.5ZM149.167 453.238L149.159 453.231C141.227 445.815 137.342 434.843 137.342 420.5V330.5C137.342 316.159 141.226 305.263 149.168 298.012C157.244 290.623 168.685 287 183.342 287H191.842C206.493 287 217.854 290.62 225.766 298.012C233.873 305.261 237.842 316.157 237.842 330.5V420.5C237.842 434.849 233.87 445.824 225.767 453.238L225.766 453.238C217.853 460.463 206.492 464 191.842 464H183.342C168.69 464 157.252 460.463 149.175 453.246L149.167 453.238ZM225.092 298.75C217.425 291.583 206.342 288 191.842 288H183.342C168.842 288 157.675 291.583 149.842 298.75C142.175 305.75 138.342 316.333 138.342 330.5V420.5C138.342 434.667 142.175 445.333 149.842 452.5C157.675 459.5 168.842 463 183.342 463H191.842C206.342 463 217.425 459.5 225.092 452.5C232.925 445.333 236.842 434.667 236.842 420.5V330.5C236.842 316.333 232.925 305.75 225.092 298.75ZM214.092 325.75C214.092 320.864 212.293 316.706 208.651 313.223C205.033 309.763 200.296 308 194.342 308H180.842C174.888 308 170.15 309.763 166.533 313.223C162.891 316.706 161.092 320.864 161.092 325.75V425.25C161.092 430.136 162.891 434.294 166.533 437.777C170.15 441.237 174.888 443 180.842 443H194.342C200.296 443 205.033 441.237 208.651 437.777C212.293 434.294 214.092 430.136 214.092 425.25V325.75ZM353.078 463L320.828 390.5H298.578V463H276.828V288H321.578C335.745 288 346.411 291.167 353.578 297.5C360.911 303.667 364.578 313.5 364.578 327V351C364.578 369.428 357.397 381.075 343.035 385.939C342.72 386.046 342.401 386.15 342.078 386.25L376.828 463H353.078ZM343.45 386.855L378.379 464H352.428L320.178 391.5H299.578V464H275.828V287H321.578C335.868 287 346.811 290.191 354.231 296.743C361.865 303.168 365.578 313.336 365.578 327V351C365.578 360.542 363.679 368.393 359.796 374.476C356.086 380.288 350.615 384.408 343.45 386.855ZM337.631 311.717L337.621 311.707C335.059 309.145 330.795 307.75 324.578 307.75H299.578V370.75H324.578C330.795 370.75 335.059 369.355 337.621 366.793C340.358 364.055 341.828 359.698 341.828 353.5V324.75C341.828 318.546 340.356 314.291 337.642 311.727L337.631 311.717ZM298.578 371.75V306.75H324.578C330.911 306.75 335.495 308.167 338.328 311C341.328 313.833 342.828 318.417 342.828 324.75V353.5C342.828 359.833 341.328 364.5 338.328 367.5C335.495 370.333 330.911 371.75 324.578 371.75H298.578ZM428.708 282.5L456.517 251.75H487.381L452.085 282.5H428.708ZM405.711 464V287H489.711V307.25H429.461V362.5H483.461V382.75H429.461V443.75H489.711V464H405.711ZM428.461 444.75V381.75H482.461V363.5H428.461V306.25H488.711V288H406.711V463H488.711V444.75H428.461ZM430.961 281.5H451.711L484.711 252.75H456.961L430.961 281.5ZM251.623 28.5H275.373V6H251.623V28.5ZM252.873 181H274.123V56H252.873V181ZM319.152 175C323.486 179 328.486 181 334.152 181H347.902V162.25H342.902C339.736 162.25 337.486 161.667 336.152 160.5C334.819 159.333 334.152 157.417 334.152 154.75V6H312.902V156C312.902 164.667 314.986 171 319.152 175ZM381.652 175C385.986 179 390.986 181 396.652 181H410.402V162.25H405.402C402.236 162.25 399.986 161.667 398.652 160.5C397.319 159.333 396.652 157.417 396.652 154.75V6H375.402V156C375.402 164.667 377.486 171 381.652 175ZM209.342 312.5C213.175 316.167 215.092 320.583 215.092 325.75V425.25C215.092 430.417 213.175 434.833 209.342 438.5C205.508 442.167 200.508 444 194.342 444H180.842C174.675 444 169.675 442.167 165.842 438.5C162.008 434.833 160.092 430.417 160.092 425.25V325.75C160.092 320.583 162.008 316.167 165.842 312.5C169.675 308.833 174.675 307 180.842 307H194.342C200.508 307 205.508 308.833 209.342 312.5Z"/>
</mask>
<path fill-rule="evenodd" clip-rule="evenodd" d="M17.5753 171.238L17.5671 171.231C9.63476 163.816 5.75 152.843 5.75 138.5V48.5C5.75 34.1593 9.63391 23.2632 17.575 16.0122C25.651 8.62347 37.0925 5 51.75 5H86.5V26H49.25C43.2959 26 38.5583 27.7628 34.9412 31.2226C31.2992 34.7063 29.5 38.8644 29.5 43.75V143.25C29.5 148.136 31.2992 152.294 34.9412 155.777C38.5583 159.237 43.2959 161 49.25 161H71.25V108.75H50.25V88H94V182H51.75C37.098 182 25.6599 178.463 17.5837 171.246L17.5753 171.238ZM72.25 107.75V162H49.25C43.0833 162 38.0833 160.167 34.25 156.5C30.4167 152.833 28.5 148.417 28.5 143.25V43.75C28.5 38.5833 30.4167 34.1667 34.25 30.5C38.0833 26.8333 43.0833 25 49.25 25H85.5V6H51.75C37.25 6 26.0833 9.58334 18.25 16.75C10.5833 23.75 6.75 34.3333 6.75 48.5V138.5C6.75 152.667 10.5833 163.333 18.25 170.5C26.0833 177.5 37.25 181 51.75 181H93V89H51.25V107.75H72.25ZM138.37 172.225L138.361 172.216C131.585 165.614 128.309 155.126 128.309 141V55H151.559V146C151.559 150.79 152.907 154.518 155.516 157.293C158.29 159.902 162.019 161.25 166.809 161.25H175.309C180.494 161.25 184.091 159.954 186.329 157.566L186.34 157.554L186.351 157.543C188.863 155.031 190.241 152.255 190.559 149.199V55H213.809V182H191.809V177.097C186.435 180.378 180.088 182 172.809 182H169.309C155.671 182 145.294 178.803 138.37 172.225ZM191.809 175.918C186.506 179.306 180.173 181 172.809 181H169.309C155.809 181 145.725 177.833 139.059 171.5C132.559 165.167 129.309 155 129.309 141V56H150.559V146C150.559 151 151.975 155 154.809 158C157.809 160.833 161.809 162.25 166.809 162.25H175.309C180.642 162.25 184.559 160.917 187.059 158.25C189.725 155.583 191.225 152.583 191.559 149.25V56H212.809V181H192.809V175.25C192.479 175.479 192.146 175.702 191.809 175.918ZM250.623 29.5V5H276.373V29.5H250.623ZM251.873 182V55H275.123V182H251.873ZM318.467 175.728L318.46 175.721C314.017 171.456 311.902 164.803 311.902 156V5H335.152V154.75C335.152 157.275 335.785 158.85 336.811 159.747C337.865 160.67 339.806 161.25 342.902 161.25H348.902V182H334.152C328.223 182 322.984 179.898 318.474 175.735L318.467 175.728ZM380.967 175.728L380.96 175.721C376.517 171.456 374.402 164.803 374.402 156V5H397.652V154.75C397.652 157.275 398.285 158.85 399.311 159.747C400.365 160.67 402.306 161.25 405.402 161.25H411.402V182H396.652C390.723 182 385.484 179.898 380.974 175.735L380.967 175.728ZM505.193 179.889L505.182 179.882C502.909 178.67 500.902 177.066 499.162 175.078C495.233 179.682 490.122 182 483.902 182H466.652C453.891 182 444.352 179.488 438.252 174.259L438.24 174.249L438.229 174.239C432.257 168.794 429.402 159.698 429.402 147.25V142.25C429.402 129.194 432.476 119.215 438.799 112.502C445.134 105.777 454.566 102.5 466.902 102.5H491.902V91C491.902 86.0512 490.395 82.3486 487.486 79.7453C484.57 77.1366 480.182 75.75 474.152 75.75H439.402V55H471.652C486.267 55 497.23 58.1868 504.328 64.7626C511.618 71.3618 515.152 81.858 515.152 96V156C515.152 158.199 515.931 159.789 517.45 160.911C519.216 161.923 522.228 162.5 526.652 162.5H527.652V182H512.902C510.533 182 507.961 181.273 505.205 179.894L505.193 179.889ZM516.902 161.75C515.069 160.417 514.152 158.5 514.152 156V96C514.152 82 510.652 71.8333 503.652 65.5C496.819 59.1667 486.152 56 471.652 56H440.402V74.75H474.152C480.319 74.75 484.986 76.1667 488.152 79C491.319 81.8333 492.902 85.8333 492.902 91V103.5H466.902C442.569 103.5 430.402 116.417 430.402 142.25V147.25C430.402 159.583 433.236 168.333 438.902 173.5C444.736 178.5 453.986 181 466.652 181H483.902C489.888 181 494.758 178.767 498.511 174.3C498.728 174.041 498.942 173.774 499.152 173.5C499.365 173.771 499.582 174.035 499.804 174.292C501.493 176.252 503.442 177.821 505.652 179C508.319 180.333 510.736 181 512.902 181H526.652V163.5C522.152 163.5 518.902 162.917 516.902 161.75ZM481.402 161.25C486.348 161.25 488.991 160.08 490.034 158.254C491.255 156.117 491.902 153.303 491.902 149.75V123.25H466.652C462.56 123.25 459.239 124.578 456.609 127.207C453.98 129.837 452.652 133.158 452.652 137.25V149.75C452.652 153.956 453.626 156.81 455.359 158.543C457.093 160.276 459.946 161.25 464.152 161.25H481.402ZM466.652 122.25C462.319 122.25 458.736 123.667 455.902 126.5C453.069 129.333 451.652 132.917 451.652 137.25V149.75C451.652 154.083 452.652 157.25 454.652 159.25C456.652 161.25 459.819 162.25 464.152 162.25H481.402C486.402 162.25 489.569 161.083 490.902 158.75C492.236 156.417 492.902 153.417 492.902 149.75V122.25H466.652ZM564.395 172.225L564.386 172.216C557.61 165.614 554.334 155.126 554.334 141V55H577.584V146C577.584 150.79 578.932 154.518 581.541 157.292C584.315 159.902 588.044 161.25 592.834 161.25H601.334C606.519 161.25 610.116 159.954 612.354 157.566L612.365 157.554L612.377 157.543C614.889 155.031 616.267 152.255 616.584 149.199V55H639.834V182H617.834V177.097C612.46 180.378 606.114 182 598.834 182H595.334C581.696 182 571.319 178.803 564.395 172.225ZM617.834 175.918C612.532 179.306 606.198 181 598.834 181H595.334C581.834 181 571.751 177.833 565.084 171.5C558.584 165.167 555.334 155 555.334 141V56H576.584V146C576.584 151 578.001 155 580.834 158C583.834 160.833 587.834 162.25 592.834 162.25H601.334C606.667 162.25 610.584 160.917 613.084 158.25C615.751 155.583 617.251 152.583 617.584 149.25V56H638.834V181H618.834V175.25C618.505 175.479 618.172 175.702 617.834 175.918ZM677.898 55H699.898V60.0545C705.023 56.6649 711.376 55 718.898 55H720.398C735.129 55 746.04 58.5815 752.875 65.9659C759.195 58.6402 767.824 55 778.648 55H780.148C793.78 55 804.08 58.1948 810.841 64.7784C817.787 71.3801 821.148 81.8701 821.148 96V182H797.898V91C797.898 86.2124 796.47 82.5823 793.712 79.977L793.691 79.9574L793.671 79.9366C791.066 77.1781 787.436 75.75 782.648 75.75H776.148C771.199 75.75 767.597 77.2562 765.167 80.1402C762.792 82.9897 761.469 86.0382 761.148 89.2981V182H737.898V91C737.898 86.1958 736.543 82.5589 733.941 79.9571L733.931 79.947L733.921 79.9366C731.316 77.1781 727.686 75.75 722.898 75.75H716.398C711.24 75.75 707.446 77.117 704.856 79.7071C702.338 82.2247 701.148 84.8983 701.148 87.75V182H677.898V55ZM760.148 89.25C760.482 85.75 761.898 82.5 764.398 79.5C767.065 76.3333 770.982 74.75 776.148 74.75H782.648C787.648 74.75 791.565 76.25 794.398 79.25C797.398 82.0833 798.898 86 798.898 91V181H820.148V96C820.148 82 816.815 71.8333 810.148 65.5C803.648 59.1667 793.648 56 780.148 56H778.648C768.029 56 759.661 59.573 753.546 66.7189C753.328 66.9747 753.112 67.2351 752.898 67.5C752.68 67.242 752.456 66.9884 752.228 66.7392C745.664 59.5797 735.055 56 720.398 56H718.898C711.249 56 704.916 57.7546 699.898 61.2639C699.559 61.5012 699.226 61.7466 698.898 62V56H678.898V181H700.148V87.75C700.148 84.5833 701.482 81.6667 704.148 79C706.982 76.1667 711.065 74.75 716.398 74.75H722.898C727.898 74.75 731.815 76.25 734.648 79.25C737.482 82.0833 738.898 86 738.898 91V181H760.148V89.25ZM865.91 172.492L865.9 172.484C858.777 165.881 855.33 155.301 855.33 141V96C855.33 81.5638 858.429 70.9871 864.873 64.5429C871.317 58.0987 881.894 55 896.33 55H903.08C915.096 55 924.319 58.3886 930.565 65.3212C936.963 72.0717 940.08 81.9395 940.08 94.75V128.25H878.58V146C878.58 150.949 880.087 154.651 882.997 157.255C885.912 159.863 890.3 161.25 896.33 161.25H932.08V182H898.83C884.055 182 873.01 178.899 865.91 172.492ZM877.58 127.25H939.08V94.75C939.08 82.0833 935.997 72.5 929.83 66C923.83 59.3333 914.913 56 903.08 56H896.33C881.997 56 871.747 59.0833 865.58 65.25C859.413 71.4167 856.33 81.6667 856.33 96V141C856.33 155.167 859.747 165.417 866.58 171.75C873.413 177.917 884.163 181 898.83 181H931.08V162.25H896.33C890.163 162.25 885.497 160.833 882.33 158C879.163 155.167 877.58 151.167 877.58 146V127.25ZM917.33 107.5V89.75C917.33 85.658 916.003 82.3367 913.373 79.7071C910.743 77.0775 907.422 75.75 903.33 75.75H893.83C887.953 75.75 884.056 77.1414 881.833 79.6585C879.723 82.0701 878.58 85.7905 878.58 91V107.5H917.33ZM918.33 89.75C918.33 85.4167 916.913 81.8333 914.08 79C911.247 76.1667 907.663 74.75 903.33 74.75H893.83C887.83 74.75 883.58 76.1667 881.08 79C878.747 81.6667 877.58 85.6667 877.58 91V108.5H918.33V89.75ZM8.25 464V287H55.25C70.3615 287 81.9564 290.102 89.8727 296.467C97.8674 302.728 101.75 312.999 101.75 327V423.5C101.75 437.947 98.3959 448.461 91.4239 454.739C84.6452 460.993 73.4991 464 58.25 464H8.25ZM90.75 454C97.4167 448 100.75 437.833 100.75 423.5V327C100.75 313.167 96.9167 303.25 89.25 297.25C81.5833 291.083 70.25 288 55.25 288H9.25V463H58.25C73.4167 463 84.25 460 90.75 454ZM73.302 312.466L73.2929 312.457C70.1784 309.343 66.0325 307.75 60.75 307.75H32V443.25H60.5C66.7027 443.25 71.0659 441.861 73.8029 439.283C76.5339 436.545 78 432.19 78 426V324.75C78 319.466 76.4073 315.416 73.3113 312.475L73.302 312.466ZM60.5 444.25C66.8333 444.25 71.5 442.833 74.5 440C77.5 437 79 432.333 79 426V324.75C79 319.25 77.3333 314.917 74 311.75C70.6667 308.417 66.25 306.75 60.75 306.75H31V444.25H60.5ZM149.167 453.238L149.159 453.231C141.227 445.815 137.342 434.843 137.342 420.5V330.5C137.342 316.159 141.226 305.263 149.168 298.012C157.244 290.623 168.685 287 183.342 287H191.842C206.493 287 217.854 290.62 225.766 298.012C233.873 305.261 237.842 316.157 237.842 330.5V420.5C237.842 434.849 233.87 445.824 225.767 453.238L225.766 453.238C217.853 460.463 206.492 464 191.842 464H183.342C168.69 464 157.252 460.463 149.175 453.246L149.167 453.238ZM225.092 298.75C217.425 291.583 206.342 288 191.842 288H183.342C168.842 288 157.675 291.583 149.842 298.75C142.175 305.75 138.342 316.333 138.342 330.5V420.5C138.342 434.667 142.175 445.333 149.842 452.5C157.675 459.5 168.842 463 183.342 463H191.842C206.342 463 217.425 459.5 225.092 452.5C232.925 445.333 236.842 434.667 236.842 420.5V330.5C236.842 316.333 232.925 305.75 225.092 298.75ZM214.092 325.75C214.092 320.864 212.293 316.706 208.651 313.223C205.033 309.763 200.296 308 194.342 308H180.842C174.888 308 170.15 309.763 166.533 313.223C162.891 316.706 161.092 320.864 161.092 325.75V425.25C161.092 430.136 162.891 434.294 166.533 437.777C170.15 441.237 174.888 443 180.842 443H194.342C200.296 443 205.033 441.237 208.651 437.777C212.293 434.294 214.092 430.136 214.092 425.25V325.75ZM353.078 463L320.828 390.5H298.578V463H276.828V288H321.578C335.745 288 346.411 291.167 353.578 297.5C360.911 303.667 364.578 313.5 364.578 327V351C364.578 369.428 357.397 381.075 343.035 385.939C342.72 386.046 342.401 386.15 342.078 386.25L376.828 463H353.078ZM343.45 386.855L378.379 464H352.428L320.178 391.5H299.578V464H275.828V287H321.578C335.868 287 346.811 290.191 354.231 296.743C361.865 303.168 365.578 313.336 365.578 327V351C365.578 360.542 363.679 368.393 359.796 374.476C356.086 380.288 350.615 384.408 343.45 386.855ZM337.631 311.717L337.621 311.707C335.059 309.145 330.795 307.75 324.578 307.75H299.578V370.75H324.578C330.795 370.75 335.059 369.355 337.621 366.793C340.358 364.055 341.828 359.698 341.828 353.5V324.75C341.828 318.546 340.356 314.291 337.642 311.727L337.631 311.717ZM298.578 371.75V306.75H324.578C330.911 306.75 335.495 308.167 338.328 311C341.328 313.833 342.828 318.417 342.828 324.75V353.5C342.828 359.833 341.328 364.5 338.328 367.5C335.495 370.333 330.911 371.75 324.578 371.75H298.578ZM428.708 282.5L456.517 251.75H487.381L452.085 282.5H428.708ZM405.711 464V287H489.711V307.25H429.461V362.5H483.461V382.75H429.461V443.75H489.711V464H405.711ZM428.461 444.75V381.75H482.461V363.5H428.461V306.25H488.711V288H406.711V463H488.711V444.75H428.461ZM430.961 281.5H451.711L484.711 252.75H456.961L430.961 281.5ZM251.623 28.5H275.373V6H251.623V28.5ZM252.873 181H274.123V56H252.873V181ZM319.152 175C323.486 179 328.486 181 334.152 181H347.902V162.25H342.902C339.736 162.25 337.486 161.667 336.152 160.5C334.819 159.333 334.152 157.417 334.152 154.75V6H312.902V156C312.902 164.667 314.986 171 319.152 175ZM381.652 175C385.986 179 390.986 181 396.652 181H410.402V162.25H405.402C402.236 162.25 399.986 161.667 398.652 160.5C397.319 159.333 396.652 157.417 396.652 154.75V6H375.402V156C375.402 164.667 377.486 171 381.652 175ZM209.342 312.5C213.175 316.167 215.092 320.583 215.092 325.75V425.25C215.092 430.417 213.175 434.833 209.342 438.5C205.508 442.167 200.508 444 194.342 444H180.842C174.675 444 169.675 442.167 165.842 438.5C162.008 434.833 160.092 430.417 160.092 425.25V325.75C160.092 320.583 162.008 316.167 165.842 312.5C169.675 308.833 174.675 307 180.842 307H194.342C200.508 307 205.508 308.833 209.342 312.5Z" stroke="white" stroke-width="10" mask="url(#path-1-outside-1)"/>
</svg>
